<?xml version="1.0" encoding="UTF-8" standalone="no"?>
<!DOCTYPE svg PUBLIC "-//W3C//DTD SVG 1.1//EN" "http://www.w3.org/Graphics/SVG/1.1/DTD/svg11.dtd">
<svg width="100%" height="100%" viewBox="0 0 1021 1021" version="1.1" xmlns="http://www.w3.org/2000/svg" xmlns:xlink="http://www.w3.org/1999/xlink" xml:space="preserve" xmlns:serif="http://www.serif.com/" style="fill-rule:evenodd;clip-rule:evenodd;stroke-linejoin:round;stroke-miterlimit:2;">
    <g id="Artboard1" transform="matrix(1,0,0,1,-12,-12)">
        <rect x="12" y="12" width="1000" height="1000" style="fill:none;"/>
        <g transform="matrix(1.80942,0,0,1.22684,-76.5651,-34.5697)">
            <path d="M601.61,249.885L601.61,641.133C601.61,758.098 537.224,853.059 457.918,853.059L192.639,853.059C113.333,853.059 48.947,758.098 48.947,641.133L48.947,249.885C48.947,132.92 113.333,37.959 192.639,37.959L457.918,37.959C537.224,37.959 601.61,132.92 601.61,249.885Z" style="fill:rgb(208,229,43);"/>
        </g>
        <g transform="matrix(0.969699,0,0,1.8007,33.2425,-651.74)">
            <path d="M691.385,446.521C714.387,446.521 735.694,453.037 747.478,463.675C759.262,474.313 759.786,487.505 748.857,498.405C658.629,588.395 477.168,769.377 418.835,827.556C407.432,838.929 385.364,846.018 361.362,846.018L296.05,846.018C273.048,846.018 251.741,839.502 239.957,828.864C228.173,818.226 227.649,805.034 238.578,794.134C328.806,704.144 510.267,523.162 568.6,464.983C580.003,453.61 602.071,446.521 626.073,446.521L691.385,446.521Z" style="fill:white;"/>
        </g>
        <g transform="matrix(0.969699,0,0,1.8007,33.2425,-651.74)">
            <path d="M691.385,434.026C722.559,434.026 751.435,442.857 767.405,457.274C783.375,471.691 784.085,489.57 769.274,504.341L439.252,833.493C423.798,848.906 393.89,858.513 361.362,858.513L296.05,858.513C264.876,858.513 236,849.683 220.03,835.265C204.06,820.848 203.35,802.97 218.161,788.198L548.183,459.047C563.637,443.633 593.545,434.026 626.073,434.026L691.385,434.026ZM691.385,459.016L626.073,459.016C610.598,459.016 596.369,463.587 589.017,470.92L258.995,800.071C251.948,807.098 252.286,815.604 259.884,822.463C267.482,829.322 281.219,833.523 296.05,833.523L361.362,833.523C376.837,833.523 391.066,828.952 398.418,821.62L728.44,492.468C735.487,485.441 735.149,476.935 727.551,470.076C719.953,463.217 706.216,459.016 691.385,459.016Z"/>
        </g>
    </g>
</svg>
